<?xml version="1.0" encoding="UTF-8" standalone="no"?>
<!-- Created with Inkscape (http://www.inkscape.org/) -->

<svg
   xmlns:dc="http://purl.org/dc/elements/1.1/"
   xmlns:cc="http://creativecommons.org/ns#"
   xmlns:rdf="http://www.w3.org/1999/02/22-rdf-syntax-ns#"
   xmlns:svg="http://www.w3.org/2000/svg"
   xmlns="http://www.w3.org/2000/svg"
   xmlns:sodipodi="http://sodipodi.sourceforge.net/DTD/sodipodi-0.dtd"
   xmlns:inkscape="http://www.inkscape.org/namespaces/inkscape"
   width="552.29004"
   height="408.73663"
   viewBox="0 0 552.29006 408.73662"
   id="svg4730"
   version="1.1"
   inkscape:version="0.91 r13725"
   sodipodi:docname="enjambrebit_isologo_curvas.svg">
  <defs
     id="defs4732" />
  <sodipodi:namedview
     id="base"
     pagecolor="#ffffff"
     bordercolor="#666666"
     borderopacity="1.0"
     inkscape:pageopacity="1"
     inkscape:pageshadow="2"
     inkscape:zoom="0.35"
     inkscape:cx="389.71648"
     inkscape:cy="-355.63163"
     inkscape:document-units="px"
     inkscape:current-layer="layer1"
     showgrid="false"
     units="px"
     fit-margin-top="20"
     fit-margin-left="20"
     fit-margin-right="20"
     fit-margin-bottom="20"
     inkscape:window-width="1920"
     inkscape:window-height="1020"
     inkscape:window-x="0"
     inkscape:window-y="31"
     inkscape:window-maximized="1" />
  <metadata
     id="metadata4735">
    <rdf:RDF>
      <cc:Work
         rdf:about="">
        <dc:format>image/svg+xml</dc:format>
        <dc:type
           rdf:resource="http://purl.org/dc/dcmitype/StillImage" />
        <dc:title></dc:title>
      </cc:Work>
    </rdf:RDF>
  </metadata>
  <g
     inkscape:label="Capa 1"
     inkscape:groupmode="layer"
     id="layer1"
     transform="translate(656.14504,460.57749)">
    <g
       transform="translate(45.412536,-542.7367)"
       style="display:inline"
       id="g10830"
       inkscape:export-filename="/home/digitalh/repos/enjambrebit.com.ar/style/images/enjambrebit_logo_placeholder.png"
       inkscape:export-xdpi="114.19"
       inkscape:export-ydpi="114.19">
      <g
         style="font-style:normal;font-variant:normal;font-weight:normal;font-stretch:normal;font-size:82.87535095px;line-height:125%;font-family:Asap;-inkscape-font-specification:Asap;letter-spacing:0px;word-spacing:0px;fill:#aa0000;fill-opacity:1;stroke:none"
         id="text6229">
        <path
           d="m -648.73894,412.88306 7.95603,7.79028 0,15.24906 -7.95603,7.95604 -24.8626,0 0,3.23214 3.97801,4.06089 24.86261,0 0,7.95603 -28.84062,0 -7.95604,-7.95603 0,-30.49813 7.95604,-7.79028 24.8626,0 z m 0,19.06133 0,-7.29303 -3.97802,-3.97802 -16.90657,0 -3.97801,3.97802 0,11.27104 20.88458,0 3.97802,-3.97801 z"
           style="font-style:normal;font-variant:normal;font-weight:normal;font-stretch:normal;font-family:TRACEROUTE;-inkscape-font-specification:TRACEROUTE;fill:#aa0000;fill-opacity:1"
           id="path5324" />
        <path
           d="m -623.74684,412.88306 32.81864,0 0,46.24444 -7.95604,0 0,-38.45416 -20.88459,0 -3.97801,3.97802 0,34.47614 -7.95604,0 0,-38.45416 7.95604,-7.79028 z"
           style="font-style:normal;font-variant:normal;font-weight:normal;font-stretch:normal;font-family:TRACEROUTE;-inkscape-font-specification:TRACEROUTE;fill:#aa0000;fill-opacity:1"
           id="path5326" />
        <path
           d="m -574.30652,404.76127 7.54166,0 0,7.54166 -7.54166,0 0,-7.54166 z m 0,54.86348 0,-43.59243 7.54166,0 0,47.4047 -7.54166,7.45878 -7.54165,0 0,-7.45878 3.81226,0 3.72939,-3.81227 z"
           style="font-style:normal;font-variant:normal;font-weight:normal;font-stretch:normal;font-family:TRACEROUTE;-inkscape-font-specification:TRACEROUTE;fill:#aa0000;fill-opacity:1"
           id="path5328" />
        <path
           d="m -524.74965,412.88306 7.95603,7.79028 0,38.45416 -32.81864,0 -7.95603,-7.95603 0,-15.24907 7.95603,-7.95603 24.86261,0 0,-3.31501 -3.97802,-3.97802 -24.8626,0 0,-7.79028 28.84062,0 z m 0,38.28841 0,-15.24907 -20.88459,0 -3.97802,3.97802 0,7.21016 3.97802,4.06089 20.88459,0 z"
           style="font-style:normal;font-variant:normal;font-weight:normal;font-stretch:normal;font-family:TRACEROUTE;-inkscape-font-specification:TRACEROUTE;fill:#aa0000;fill-opacity:1"
           id="path5330" />
        <path
           d="m -466.93891,412.88306 7.95603,7.79028 0,38.45416 -7.95603,0 0,-34.47614 -3.97802,-3.97802 -8.45328,0 0,38.45416 -7.95604,0 0,-38.45416 -12.4313,0 0,38.45416 -7.95603,0 0,-46.24444 40.77467,0 z"
           style="font-style:normal;font-variant:normal;font-weight:normal;font-stretch:normal;font-family:TRACEROUTE;-inkscape-font-specification:TRACEROUTE;fill:#aa0000;fill-opacity:1"
           id="path5332" />
        <path
           d="m -417.10881,412.88306 7.95603,7.79028 0,30.49813 -7.95603,7.95603 -32.81864,0 0,-54.36623 7.95603,0 0,8.12179 24.86261,0 z m 0,34.22752 0,-22.45922 -3.97802,-3.97802 -20.88459,0 0,30.49813 20.88459,0 3.97802,-4.06089 z"
           style="font-style:normal;font-variant:normal;font-weight:normal;font-stretch:normal;font-family:TRACEROUTE;-inkscape-font-specification:TRACEROUTE;fill:#aa0000;fill-opacity:1"
           id="path5334" />
        <path
           d="m -392.11671,412.88306 32.81864,0 0,7.79028 -28.84063,0 -3.97801,3.97802 0,34.47614 -7.95604,0 0,-38.45416 7.95604,-7.79028 z"
           style="font-style:normal;font-variant:normal;font-weight:normal;font-stretch:normal;font-family:TRACEROUTE;-inkscape-font-specification:TRACEROUTE;fill:#aa0000;fill-opacity:1"
           id="path5336" />
        <path
           d="m -317.3994,412.88306 7.95603,7.79028 0,15.24906 -7.95603,7.95604 -24.86261,0 0,3.23214 3.97802,4.06089 24.86261,0 0,7.95603 -28.84063,0 -7.95603,-7.95603 0,-30.49813 7.95603,-7.79028 24.86261,0 z m 0,19.06133 0,-7.29303 -3.97802,-3.97802 -16.90657,0 -3.97802,3.97802 0,11.27104 20.88459,0 3.97802,-3.97801 z"
           style="font-style:normal;font-variant:normal;font-weight:normal;font-stretch:normal;font-family:TRACEROUTE;-inkscape-font-specification:TRACEROUTE;fill:#aa0000;fill-opacity:1"
           id="path5338" />
        <path
           d="m -244.23601,412.88306 7.95603,7.79028 0,30.49813 -7.95603,7.95603 -32.81864,0 0,-54.36623 7.95604,0 0,8.12179 24.8626,0 z m 0,34.22752 0,-22.45922 -3.97802,-3.97802 -20.88458,0 0,30.49813 20.88458,0 3.97802,-4.06089 z"
           style="font-style:normal;font-variant:normal;font-weight:normal;font-stretch:normal;font-family:TRACEROUTE;-inkscape-font-specification:TRACEROUTE;fill:#aa0000;fill-opacity:1"
           id="path5340" />
        <path
           d="m -219.16103,412.88306 0,-8.12179 -8.03891,0 0,8.12179 8.03891,0 z m -8.03891,46.24444 0,-42.43218 8.03891,0 0,42.43218 -8.03891,0 z"
           style="font-style:normal;font-variant:normal;font-weight:normal;font-stretch:normal;font-family:TRACEROUTE;-inkscape-font-specification:TRACEROUTE;fill:#aa0000;fill-opacity:1"
           id="path5342" />
        <path
           d="m -169.26749,420.67334 -32.81864,0 0,26.43724 3.97801,4.06089 28.84063,0 0,7.95603 -32.81864,0 -7.95604,-7.95603 0,-46.4102 7.95604,0 0,8.12179 32.81864,0 0,7.79028 z"
           style="font-style:normal;font-variant:normal;font-weight:normal;font-stretch:normal;font-family:TRACEROUTE;-inkscape-font-specification:TRACEROUTE;fill:#aa0000;fill-opacity:1"
           id="path5344" />
      </g>
      <path
         inkscape:export-ydpi="67.989998"
         inkscape:export-xdpi="67.989998"
         inkscape:export-filename="/home/digitalh/Dropbox/enjambrebit/grafica/export/enjambre_iso-logo_v01.png"
         style="fill:#a80000;fill-opacity:1;stroke:#ffffff;stroke-width:2;stroke-miterlimit:4;stroke-dasharray:none;stroke-opacity:1"
         d="m -427.26007,198.61164 110.2191,0 34.234,59.29504 -55.1095,95.45253 -68.468,-4e-5 -55.0185,-95.60998 z"
         id="path6233"
         inkscape:connector-curvature="0"
         sodipodi:nodetypes="ccccccc" />
      <path
         sodipodi:nodetypes="ccccccc"
         inkscape:connector-curvature="0"
         id="path6235"
         d="m -427.49197,197.38652 67.1135,0 20.8454,-36.10534 -33.5567,-58.12203 -41.6909,2e-5 -33.5013,58.21788 z"
         style="fill:#dc0000;fill-opacity:1;stroke:#ffffff;stroke-width:2;stroke-miterlimit:4;stroke-dasharray:none;stroke-opacity:1"
         inkscape:export-filename="/home/digitalh/Dropbox/enjambrebit/grafica/export/enjambre_iso-logo_v01.png"
         inkscape:export-xdpi="67.989998"
         inkscape:export-ydpi="67.989998" />
      <path
         inkscape:export-ydpi="67.989998"
         inkscape:export-xdpi="67.989998"
         inkscape:export-filename="/home/digitalh/Dropbox/enjambrebit/grafica/export/enjambre_iso-logo_v01.png"
         style="fill:#ff2a2a;fill-opacity:1;stroke:#ffffff;stroke-width:2;stroke-miterlimit:4;stroke-dasharray:none;stroke-opacity:1"
         d="m -482.87947,103.15915 41.0864,0 12.7613,22.10341 -20.5431,35.58183 -25.5228,0 -20.5093,-35.64052 z"
         id="path6237"
         inkscape:connector-curvature="0"
         sodipodi:nodetypes="ccccccc" />
      <path
         inkscape:export-ydpi="67.989998"
         inkscape:export-xdpi="67.989998"
         inkscape:export-filename="/home/digitalh/Dropbox/enjambrebit/grafica/export/enjambre_iso-logo_v01.png"
         style="fill:#dc0000;fill-opacity:1;stroke:#ffffff;stroke-width:2;stroke-miterlimit:4;stroke-dasharray:none;stroke-opacity:1"
         d="m -516.83487,351.51876 66.362,0 20.612,-35.7011 -33.181,-57.47126 -41.2242,10e-6 -33.1261,57.56605 z"
         id="path6239"
         inkscape:connector-curvature="0"
         sodipodi:nodetypes="ccccccc" />
      <path
         sodipodi:nodetypes="ccccccc"
         inkscape:connector-curvature="0"
         id="path6241"
         d="m -560.63647,280.17114 41.8681,0 13.004,-22.52394 -20.9339,-36.25876 -26.0083,0 -20.8995,36.31858 z"
         style="fill:#ff2a2a;fill-opacity:1;stroke:#ffffff;stroke-width:2;stroke-miterlimit:4;stroke-dasharray:none;stroke-opacity:1"
         inkscape:export-filename="/home/digitalh/Dropbox/enjambrebit/grafica/export/enjambre_iso-logo_v01.png"
         inkscape:export-xdpi="67.989998"
         inkscape:export-ydpi="67.989998" />
      <path
         sodipodi:nodetypes="ccccccc"
         inkscape:connector-curvature="0"
         id="path6243"
         d="m -517.01437,162.06623 67.5585,0 20.9837,36.3448 -33.7793,58.50747 -41.9674,0 -33.7234,-58.60397 z"
         style="fill:#ff8080;fill-opacity:1;stroke:#ffffff;stroke-width:2;stroke-miterlimit:4;stroke-dasharray:none;stroke-opacity:1"
         inkscape:export-filename="/home/digitalh/Dropbox/enjambrebit/grafica/export/enjambre_iso-logo_v01.png"
         inkscape:export-xdpi="67.989998"
         inkscape:export-ydpi="67.989998" />
      <path
         sodipodi:nodetypes="ccccccc"
         inkscape:connector-curvature="0"
         id="path6245"
         d="m -506.17197,160.8764 18.3691,0 5.7054,-9.88211 -9.1846,-15.90809 -11.4108,0 -9.1694,15.93435 z"
         style="fill:#a80000;fill-opacity:1;stroke:#ffffff;stroke-width:2;stroke-miterlimit:4;stroke-dasharray:none;stroke-opacity:1"
         inkscape:export-filename="/home/digitalh/Dropbox/enjambrebit/grafica/export/enjambre_iso-logo_v01.png"
         inkscape:export-xdpi="67.989998"
         inkscape:export-ydpi="67.989998" />
      <path
         inkscape:export-ydpi="67.989998"
         inkscape:export-xdpi="67.989998"
         inkscape:export-filename="/home/digitalh/Dropbox/enjambrebit/grafica/export/enjambre_iso-logo_v01.png"
         style="fill:#ff8080;fill-opacity:1;stroke:#ffffff;stroke-width:2;stroke-miterlimit:4;stroke-dasharray:none;stroke-opacity:1"
         d="m -548.69377,281.30191 18.3691,0 5.7054,9.88211 -9.1845,15.90809 -11.4109,0 -9.1694,-15.93435 z"
         id="path6247"
         inkscape:connector-curvature="0"
         sodipodi:nodetypes="ccccccc" />
    </g>
  </g>
</svg>
